<svg xmlns="http://www.w3.org/2000/svg" width="180.671" height="46.333" viewBox="0 0 180.671 46.333">
  <g id="Gruppe_8007" data-name="Gruppe 8007" transform="translate(0 -3.035)">
    <g id="Gruppe_1" data-name="Gruppe 1" transform="translate(0 16.273)">
      <g id="LINE">
        <path id="Pfad_1" data-name="Pfad 1" d="M13.028,63.9l2.409-6.619H28.508L24.525,46.341a1.2,1.2,0,0,0-1.131-.792H17.523a1.2,1.2,0,0,0-1.131.792L7.044,72.025H0L11.037,41.7a4.212,4.212,0,0,1,3.958-2.771H25.923A4.212,4.212,0,0,1,29.881,41.7L40.918,72.025H33.874L30.917,63.9Z" transform="translate(0 -38.93)" fill="#f4f4f4"/>
      </g>
    </g>
    <g id="ARC" transform="translate(44.564 16.273)">
      <path id="Pfad_2" data-name="Pfad 2" d="M153.932,38.93v6.619H128.66a1.2,1.2,0,0,0-1.2,1.2V64.2a1.2,1.2,0,0,0,1.2,1.2h17.45a1.2,1.2,0,0,0,1.2-1.2V59.99a1.2,1.2,0,0,0-1.2-1.2H130.436V52.168H149.72a4.212,4.212,0,0,1,4.212,4.212V67.813a4.212,4.212,0,0,1-4.212,4.212H125.049a4.212,4.212,0,0,1-4.212-4.212V43.142a4.212,4.212,0,0,1,4.212-4.212Z" transform="translate(-120.837 -38.93)" fill="#f4f4f4"/>
    </g>
    <g id="LINE-2" data-name="LINE" transform="translate(83.716 16.273)">
      <rect id="Rechteck_2" data-name="Rechteck 2" width="6.619" height="33.095" fill="#f4f4f4"/>
    </g>
    <g id="LINE-3" data-name="LINE" transform="translate(83.716 3.035)">
      <rect id="Rechteck_3" data-name="Rechteck 3" width="6.619" height="9.906" fill="#f4f4f4"/>
    </g>
    <g id="ARC-2" data-name="ARC" transform="translate(96.391 3.035)">
      <path id="Pfad_3" data-name="Pfad 3" d="M306.5,42.749H269.189a1.2,1.2,0,0,1-1.2-1.2V3.035h-6.619V45.156a4.212,4.212,0,0,0,4.212,4.212h36.706a4.212,4.212,0,0,0,4.212-4.212Z" transform="translate(-261.366 -3.035)" fill="#f4f4f4"/>
    </g>
    <path id="Pfad_4" data-name="Pfad 4" d="M322.881,38.93H298.21A4.093,4.093,0,0,0,294,42.893v15.57a4.094,4.094,0,0,0,4.212,3.963h24.671a4.093,4.093,0,0,0,4.212-3.963V42.893A4.093,4.093,0,0,0,322.881,38.93Zm-2.407,16.7a1.169,1.169,0,0,1-1.2,1.132h-17.45a1.17,1.17,0,0,1-1.2-1.132V46.29a1.169,1.169,0,0,1,1.2-1.132h17.45a1.169,1.169,0,0,1,1.2,1.132Z" transform="translate(-185.573 -22.657)" fill="#f4f4f4"/>
    <g id="LINE-4" data-name="LINE" transform="translate(147.576 16.273)">
      <path id="Pfad_5" data-name="Pfad 5" d="M415.742,48.678a1.2,1.2,0,0,0,1.685.241,1.224,1.224,0,0,0,.241-.241l7.311-9.748h8.274L421.383,54.756a1.2,1.2,0,0,0,0,1.444l11.869,15.826h-8.274l-7.311-9.748a1.2,1.2,0,0,0-1.926,0l-7.311,9.748h-8.274L412.026,56.2a1.2,1.2,0,0,0,0-1.444L400.157,38.93h8.274Z" transform="translate(-400.157 -38.93)" fill="#9c3"/>
    </g>
  </g>
</svg>
