<svg xmlns="http://www.w3.org/2000/svg" viewBox="0 0 176 48" width="176" height="48">
  <defs>
    <style>
      .cls-1{fill:#fff}
    </style>
  </defs>
  <g id="codersbay-logo" transform="translate(-40 -20)">
    <g id="codersbay-logo-2" data-name="codersbay-logo">
      <path id="Vereinigungsmenge_1" d="M9.571 48A9.527 9.527 0 0 1 0 38.539V9.462A9.527 9.527 0 0 1 9.571 0H70.43A9.528 9.528 0 0 1 80 9.462v29.077A9.528 9.528 0 0 1 70.43 48zm34.223-1.892H70.43a7.613 7.613 0 0 0 7.656-7.569V13.392a24.344 24.344 0 0 0-19.313-9.629H45.506v-1.87H34.693c0 13.813.006 25.626.006 25.634A13.358 13.358 0 1 1 21.342 14.3h11.5V3.763H21.355a24.114 24.114 0 0 0-19.441 9.71v25.066a7.614 7.614 0 0 0 7.656 7.569h26.857a24.076 24.076 0 0 0 3.684-3.639 24.11 24.11 0 0 0 3.682 3.639zm1.718-18.552V14.309h13.265a13.228 13.228 0 1 1-13.266 13.247z" class="cls-1" data-name="Vereinigungsmenge 1" transform="translate(40 20)"/>
    </g>
    <path id="Pfad_115" d="M8.125-.349a6.428 6.428 0 0 1-2.794.52 4.7 4.7 0 0 1-3.537-1.326A4.856 4.856 0 0 1 .506-4.689 5.188 5.188 0 0 1 1.954-8.5a5.057 5.057 0 0 1 3.759-1.467 7.01 7.01 0 0 1 2.412.367v2.126a4.265 4.265 0 0 0-2.235-.592 2.961 2.961 0 0 0-2.222.866 3.227 3.227 0 0 0-.845 2.352 3.165 3.165 0 0 0 .8 2.266 2.813 2.813 0 0 0 2.147.844 4.568 4.568 0 0 0 2.358-.629zm5.943.52A4.542 4.542 0 0 1 10.647-1.2a4.929 4.929 0 0 1-1.322-3.571 5.282 5.282 0 0 1 1.343-3.76 4.641 4.641 0 0 1 3.558-1.436 4.429 4.429 0 0 1 3.384 1.374A5.075 5.075 0 0 1 18.9-4.97a5.2 5.2 0 0 1-1.339 3.726A4.589 4.589 0 0 1 14.068.171zm.1-8.237a2.213 2.213 0 0 0-1.84.872 3.642 3.642 0 0 0-.682 2.307 3.575 3.575 0 0 0 .682 2.3 2.181 2.181 0 0 0 1.786.848 2.2 2.2 0 0 0 1.806-.824 3.535 3.535 0 0 0 .668-2.287 3.832 3.832 0 0 0-.647-2.372 2.109 2.109 0 0 0-1.778-.844zM20.8 0v-9.8h3.462q5.207 0 5.207 4.778a4.84 4.84 0 0 1-1.421 3.657A5.231 5.231 0 0 1 24.263 0zM23-8v6.214h1.09a2.942 2.942 0 0 0 2.246-.861A3.274 3.274 0 0 0 27.153-5a2.97 2.97 0 0 0-.808-2.2 3.073 3.073 0 0 0-2.266-.8zm14.23 8h-5.859v-9.8h5.636V-8h-3.434v2.181h3.2v1.791h-3.2v2.242h3.66zm10.048 0H44.75l-1.52-2.522q-.17-.287-.327-.513a2.846 2.846 0 0 0-.317-.386 1.26 1.26 0 0 0-.334-.246.846.846 0 0 0-.378-.085h-.593V0h-2.2v-9.8h3.489q3.558 0 3.558 2.666a2.768 2.768 0 0 1-.157.947 2.632 2.632 0 0 1-.443.783 2.811 2.811 0 0 1-.692.6 3.562 3.562 0 0 1-.9.4v.027a1.4 1.4 0 0 1 .423.222 3.029 3.029 0 0 1 .4.359 5 5 0 0 1 .365.441q.174.236.317.461zm-6-8.148v2.728h.954a1.579 1.579 0 0 0 1.138-.41 1.371 1.371 0 0 0 .436-1.032q0-1.285-1.533-1.285zm6.74 7.772v-2.187a4.188 4.188 0 0 0 1.288.749 4.129 4.129 0 0 0 1.4.25 3.1 3.1 0 0 0 .726-.075 1.7 1.7 0 0 0 .518-.208.908.908 0 0 0 .31-.314.786.786 0 0 0 .1-.393.851.851 0 0 0-.164-.513 1.762 1.762 0 0 0-.446-.417 4.66 4.66 0 0 0-.671-.369q-.388-.178-.838-.362a4.278 4.278 0 0 1-1.707-1.169 2.557 2.557 0 0 1-.562-1.668 2.663 2.663 0 0 1 .307-1.316 2.61 2.61 0 0 1 .835-.906 3.737 3.737 0 0 1 1.231-.526 6.268 6.268 0 0 1 1.472-.167 8.828 8.828 0 0 1 1.353.092 5.307 5.307 0 0 1 1.087.284v2.044a3.284 3.284 0 0 0-.535-.3 4.23 4.23 0 0 0-.6-.215 4.537 4.537 0 0 0-.61-.126 4.3 4.3 0 0 0-.576-.041 3 3 0 0 0-.682.072 1.745 1.745 0 0 0-.518.2 1 1 0 0 0-.327.311.739.739 0 0 0-.116.407.778.778 0 0 0 .129.441 1.488 1.488 0 0 0 .368.369 3.9 3.9 0 0 0 .579.342q.341.167.77.345a8.571 8.571 0 0 1 1.053.523 3.745 3.745 0 0 1 .8.625 2.437 2.437 0 0 1 .511.8 2.822 2.822 0 0 1 .177 1.042 2.8 2.8 0 0 1-.31 1.377 2.522 2.522 0 0 1-.842.9 3.643 3.643 0 0 1-1.237.5 7.128 7.128 0 0 1-1.489.15 8.256 8.256 0 0 1-1.53-.137 4.609 4.609 0 0 1-1.251-.414zm9.3.547a1.254 1.254 0 0 1-.886-.328 1.056 1.056 0 0 1-.354-.807 1.017 1.017 0 0 1 .365-.807 1.344 1.344 0 0 1 .91-.314 1.294 1.294 0 0 1 .9.318 1.037 1.037 0 0 1 .351.8 1.043 1.043 0 0 1-.358.817 1.348 1.348 0 0 1-.923.321zM60.635 0v-9.8h3.558a4.432 4.432 0 0 1 2.515.6 1.937 1.937 0 0 1 .879 1.7 2.01 2.01 0 0 1-.535 1.388 2.809 2.809 0 0 1-1.366.827v.027a2.7 2.7 0 0 1 1.666.772 2.164 2.164 0 0 1 .624 1.565 2.62 2.62 0 0 1-.962 2.131A4.013 4.013 0 0 1 64.39 0zm2.2-8.176v2.324h.965a1.61 1.61 0 0 0 1.073-.332 1.132 1.132 0 0 0 .392-.913q0-1.08-1.608-1.08zm0 3.965v2.584h1.193a1.832 1.832 0 0 0 1.2-.355 1.189 1.189 0 0 0 .433-.971 1.109 1.109 0 0 0-.426-.923 1.88 1.88 0 0 0-1.189-.335zM78.457 0h-2.4l-.7-2.181h-3.47L71.2 0h-2.387l3.558-9.8h2.61zm-3.6-3.876l-1.05-3.295a4.305 4.305 0 0 1-.164-.882h-.055a3.749 3.749 0 0 1-.17.854l-1.061 3.323zM86.274-9.8l-3.183 6.314V0h-2.2v-3.445L77.789-9.8H80.3l1.574 3.657q.041.1.225.8h.027a3.569 3.569 0 0 1 .211-.772l1.6-3.685z" class="cls-1" data-name="Pfad 115" transform="translate(129.726 49)"/>
  </g>
</svg>