<svg id="Ebene_1" data-name="Ebene 1" xmlns="http://www.w3.org/2000/svg" viewBox="0 0 553 148.3755"><defs><style>.cls-1{fill:#fec828;}</style></defs><title>ILG20160125-Logo SANAG ohne Slogan, Orange WEB</title><path id="_Pfad_" data-name="&lt;Pfad&gt;" class="cls-1" d="M552.44364,148.3755H0.55677A0.58487,0.58487,0,0,1,0,147.7661V0.6094A0.58487,0.58487,0,0,1,.55677,0H552.44323A0.58487,0.58487,0,0,1,553,.6094V147.76656A0.58444,0.58444,0,0,1,552.44364,148.3755Z"/><path id="_Zusammengesetzter_Pfad_" data-name="&lt;Zusammengesetzter Pfad&gt;" d="M117.62965,101.3564a23.83892,23.83892,0,0,1-7.11154,17.14274,22.87661,22.87661,0,0,1-16.8328,6.98957H25.01916a1.13386,1.13386,0,0,1-1.13386-1.13386V102.52808a1.13386,1.13386,0,0,1,1.13386-1.13386H90.51962a1.13386,1.13386,0,0,0,1.13386-1.13386v-12.893a1.13386,1.13386,0,0,0-1.13386-1.13386h-42.844a22.929,22.929,0,0,1-16.8328-7.04612A23.34538,23.34538,0,0,1,23.8853,62.19859V46.79075a23.07718,23.07718,0,0,1,6.84449-16.7984,24.264,24.264,0,0,1,17.3228-7.10555h66.41794a1.13386,1.13386,0,0,1,1.13386,1.13386v21.933a1.13386,1.13386,0,0,1-1.13386,1.13386H50.8317a1.13386,1.13386,0,0,0-1.13386,1.13386l0.08122,12.76217a1.13386,1.13386,0,0,0,1.13386,1.13386h42.8536a22.65423,22.65423,0,0,1,16.75158,7.1469,22.89536,22.89536,0,0,1,7.11154,16.75867V101.3564Z"/><path id="_Zusammengesetzter_Pfad_2" data-name="&lt;Zusammengesetzter Pfad&gt;" d="M322.56506,125.48871H298.7864a1.13386,1.13386,0,0,1-1.13386-1.13386V48.11732a1.13386,1.13386,0,0,0-1.13386-1.13386H256.77726a1.13386,1.13386,0,0,0-1.13386,1.13386v76.23753a1.13386,1.13386,0,0,1-1.13386,1.13386H230.80912a1.13386,1.13386,0,0,1-1.13386-1.13386V24.02065a1.13386,1.13386,0,0,1,1.13386-1.13386h68.47126A24.0085,24.0085,0,0,1,316.3149,29.885c4.63424,4.65839,7.384,10.29307,7.384,16.90579v77.5641A1.13386,1.13386,0,0,1,322.56506,125.48871Z"/><path id="_Zusammengesetzter_Pfad_3" data-name="&lt;Zusammengesetzter Pfad&gt;" d="M529.34874,101.3564a23.83892,23.83892,0,0,1-7.11154,17.14274,22.87661,22.87661,0,0,1-16.8328,6.98957H459.39476a22.87661,22.87661,0,0,1-16.8328-6.98957,23.34538,23.34538,0,0,1-6.95756-16.98876V46.79075a23.07718,23.07718,0,0,1,6.84449-16.7984,24.26393,24.26393,0,0,1,17.32279-7.10555h66.36868a1.13386,1.13386,0,0,1,1.13385,1.1307l0.06074,21.829a1.13386,1.13386,0,0,1-1.13385,1.137H462.69415a1.13386,1.13386,0,0,0-1.13386,1.13386v52.143a1.13386,1.13386,0,0,0,1.13386,1.13386h39.59042a1.13386,1.13386,0,0,0,1.13386-1.13386V87.38443a1.13386,1.13386,0,0,0-1.13386-1.13386H488.68774a1.13386,1.13386,0,0,1-1.13386-1.13638l0.04862-21.79111a1.13386,1.13386,0,0,1,1.13386-1.13133h39.52448A1.13386,1.13386,0,0,1,529.3947,63.327Z"/><path id="_Zusammengesetzter_Pfad_4" data-name="&lt;Zusammengesetzter Pfad&gt;" d="M332.63388,45.65076c0,4.22382.00812,8.24878,0.00812,8.24878L332.634,123.34"/><path id="_Zusammengesetzter_Pfad_5" data-name="&lt;Zusammengesetzter Pfad&gt;" d="M332.73831,46.66523v77.7052a1.13385,1.13385,0,0,0,1.13385,1.13385h23.7525a1.13385,1.13385,0,0,0,1.13385-1.13449l-0.01959-34.84471a1.13391,1.13391,0,0,1,1.13391-1.13455h39.63873a0.88382,0.88382,0,0,1,1.13385,1.13356l0.00928,34.82608a1.13383,1.13383,0,0,0,1.13361,1.13353l23.68191,0.00476a1.13384,1.13384,0,0,0,1.13407-1.134l-0.008-69.44049s0.00812-4.025.00812-8.24878c0-6.48712-2.75-12.036-7.41666-16.68181A23.893,23.893,0,0,0,401.88412,22.921c-11.36475,0-44.58331-.02087-44.58331-0.02087A25.04283,25.04283,0,0,0,339.655,30.35842C334.97382,35.04,332.73831,40.01819,332.73831,46.66523Zm26.07924,16.44319-0.07924-14.99154a1.13385,1.13385,0,0,1,1.13385-1.13341h39.62842a1.13384,1.13384,0,0,1,1.13384,1.13354l0.00464,14.992a1.13386,1.13386,0,0,1-1.13386,1.13416H359.95183A1.13428,1.13428,0,0,1,358.81755,63.10842Z"/><path id="_Zusammengesetzter_Pfad_6" data-name="&lt;Zusammengesetzter Pfad&gt;" d="M126.61331,46.79023v77.7052a1.13385,1.13385,0,0,0,1.13385,1.13385h23.7525a1.13385,1.13385,0,0,0,1.13385-1.13449l-0.01959-34.84471a1.13391,1.13391,0,0,1,1.13391-1.13455h39.63873a0.88382,0.88382,0,0,1,1.13385,1.13356l0.00928,34.82608a1.13383,1.13383,0,0,0,1.13361,1.13353l23.68191,0.00476a1.13384,1.13384,0,0,0,1.13407-1.134l-0.008-69.44049s0.00812-4.025.00812-8.24878c0-6.48712-2.75-12.036-7.41666-16.68181A23.893,23.893,0,0,0,195.75912,23.046c-11.36475,0-44.58331-.02087-44.58331-0.02087A25.04283,25.04283,0,0,0,133.53,30.48342C128.84882,35.165,126.61331,40.14319,126.61331,46.79023Zm26.07924,16.44319-0.07924-14.99154a1.13385,1.13385,0,0,1,1.13385-1.13341h39.62842a1.13384,1.13384,0,0,1,1.13384,1.13354l0.00464,14.992a1.13386,1.13386,0,0,1-1.13386,1.13416H153.82683A1.13428,1.13428,0,0,1,152.69255,63.23342Z"/></svg>